<?xml version="1.0" encoding="UTF-8"?>
<svg width="32px" height="32px" viewBox="0 0 32 32" version="1.1" xmlns="http://www.w3.org/2000/svg">
    <g stroke="none" stroke-width="1" fill="none" fill-rule="evenodd">
        <circle fill="#FF1493" cx="16" cy="16" r="16"></circle>
        <path d="M22,12 C22.5522847,12 23,12.4477153 23,13 L23,13 L23,21 C23,21.5522847 22.5522847,22 22,22 L22,22 L10,22 C9.44771525,22 9,21.5522847 9,21 L9,21 L9,13 C9,12.4477153 9.44771525,12 10,12 L10,12 Z M21,14 L11,14 L11,20 L21,20 L21,14 Z M13,16 C13.5522847,16 14,16.4477153 14,17 C14,17.5522847 13.5522847,18 13,18 C12.4477153,18 12,17.5522847 12,17 C12,16.4477153 12.4477153,16 13,16 Z M19,16 C19.5522847,16 20,16.4477153 20,17 C20,17.5522847 19.5522847,18 19,18 C18.4477153,18 18,17.5522847 18,17 C18,16.4477153 18.4477153,16 19,16 Z" fill="#FFFFFF" fill-rule="nonzero"></path>
    </g>
</svg>
