<?xml version="1.0" encoding="UTF-8"?>
<svg width="32px" height="32px" viewBox="0 0 32 32" version="1.1" xmlns="http://www.w3.org/2000/svg">
    <g stroke="none" stroke-width="1" fill="none" fill-rule="evenodd">
        <circle fill="#10B981" cx="16" cy="16" r="16"></circle>
        <path d="M16,8 C19.3137085,8 22,10.6862915 22,14 C22,15.7003395 21.1937118,17.2229912 19.9313708,18.2650239 L16,23 L12.0686292,18.2650239 C10.8062882,17.2229912 10,15.7003395 10,14 C10,10.6862915 12.6862915,8 16,8 Z M16,12 C14.8954305,12 14,12.8954305 14,14 C14,15.1045695 14.8954305,16 16,16 C17.1045695,16 18,15.1045695 18,14 C18,12.8954305 17.1045695,12 16,12 Z" fill="#FFFFFF" fill-rule="nonzero"></path>
    </g>
</svg>
